<?xml version="1.0" encoding="utf-8"?><!-- Uploaded to: SVG Repo, www.svgrepo.com, Generator: SVG Repo Mixer Tools -->
<svg width="800px" height="800px" viewBox="0 0 400 400" fill="none" xmlns="http://www.w3.org/2000/svg">
<path d="M200.645 59.0096C215.129 55.0091 236.113 63.0433 236.113 80.622C236.113 149.279 131.633 102.263 196.767 60.1169" stroke="#000000" stroke-opacity="0.9" stroke-width="16" stroke-linecap="round" stroke-linejoin="round"/>
<path d="M54.0005 127.623C93.8634 126.804 134.166 129.843 174.5 132.587M346.609 130.394C306.989 136.998 266.816 137.357 226.5 135.633" stroke="#000000" stroke-opacity="0.9" stroke-width="16" stroke-linecap="round" stroke-linejoin="round"/>
<path d="M225.687 137.699C221.079 163.406 216.247 193.165 214.157 219.283" stroke="#000000" stroke-opacity="0.9" stroke-width="16" stroke-linecap="round" stroke-linejoin="round"/>
<path d="M175.568 136.596C179.629 163.159 181.783 191.295 180.089 218.24" stroke="#000000" stroke-opacity="0.9" stroke-width="16" stroke-linecap="round" stroke-linejoin="round"/>
<path d="M180.671 218.24C142.557 258.463 106.658 300.172 65.8604 338.153" stroke="#000000" stroke-opacity="0.9" stroke-width="16" stroke-linecap="round" stroke-linejoin="round"/>
<path d="M214.935 219.837C236.065 233.088 252.192 246.81 270.733 263.166" stroke="#000000" stroke-opacity="0.9" stroke-width="16" stroke-linecap="round" stroke-linejoin="round"/>
<path d="M273.295 263.165C257.573 333.735 239.152 344.412 265.712 341.756" stroke="#000000" stroke-opacity="0.9" stroke-width="16" stroke-linecap="round" stroke-linejoin="round"/>
</svg>