<?xml version="1.0" encoding="utf-8"?><!-- Uploaded to: SVG Repo, www.svgrepo.com, Generator: SVG Repo Mixer Tools -->
<svg width="800px" height="800px" viewBox="0 0 400 400" fill="none" xmlns="http://www.w3.org/2000/svg">
<path d="M360 139.821C334.223 142.133 307.329 143.239 281.486 145.447C250.577 148.085 224.997 157.556 193.158 159.934C145.646 163.485 99.718 148.261 50.1492 153.649" stroke="#000000" stroke-opacity="0.9" stroke-width="16" stroke-linecap="round" stroke-linejoin="round"/>
<path d="M301.221 120.286C269.513 93.1104 243.452 120.106 253.89 147.587C272.608 196.87 325.695 158.263 302.669 123.22" stroke="#000000" stroke-opacity="0.9" stroke-width="16" stroke-linecap="round" stroke-linejoin="round"/>
<path d="M185.868 284.418C189.178 243.032 184.43 201.592 181.836 160.478" stroke="#000000" stroke-opacity="0.9" stroke-width="16" stroke-linecap="round" stroke-linejoin="round"/>
<path d="M202.493 287C198.619 287 193.065 285.165 187 284.418" stroke="#000000" stroke-opacity="0.9" stroke-width="16" stroke-linecap="round" stroke-linejoin="round"/>
<path d="M50.0395 152.731C51.4414 155.514 38.9379 162.952 39.8707 165.642" stroke="#000000" stroke-opacity="0.9" stroke-width="16" stroke-linecap="round" stroke-linejoin="round"/>
</svg>