<?xml version="1.0" encoding="utf-8"?><!-- Uploaded to: SVG Repo, www.svgrepo.com, Generator: SVG Repo Mixer Tools -->
<svg width="800px" height="800px" viewBox="0 0 400 400" fill="none" xmlns="http://www.w3.org/2000/svg">
<path d="M186.614 72.4731C224.379 48.7479 249.125 95.8877 217.573 122.872C211.216 128.307 203.95 131 195.575 131C166.663 131 174.822 98.0181 180.911 79.7886" stroke="#000000" stroke-opacity="0.9" stroke-width="16" stroke-linecap="round" stroke-linejoin="round"/>
<path d="M159.599 135.306C159.599 165.814 166.161 192.676 167.245 220.197C168.594 254.439 166.948 294.626 159.594 367.429" stroke="#000000" stroke-opacity="0.9" stroke-width="16" stroke-linecap="round" stroke-linejoin="round"/>
<path d="M233.817 140.948C236.526 167.141 229.894 184.384 228.485 196.05C232.294 332.798 237.372 351.729 237.372 371.134" stroke="#000000" stroke-opacity="0.9" stroke-width="16" stroke-linecap="round" stroke-linejoin="round"/>
<path d="M233.833 140.946C254.18 129.863 287.866 120.116 283.603 90.2878C283.093 86.7198 284.465 84.9557 280.048 84.9557" stroke="#000000" stroke-opacity="0.9" stroke-width="16" stroke-linecap="round" stroke-linejoin="round"/>
<path d="M157.252 136.578C126.023 139.523 107.488 101.479 116.993 72.9635" stroke="#000000" stroke-opacity="0.9" stroke-width="16" stroke-linecap="round" stroke-linejoin="round"/>
<path d="M119.83 61.3929C107.471 43.4995 141.146 14.6393 153.662 34.6629C159.196 43.5154 145.536 69.7997 135.702 63.8998" stroke="#000000" stroke-opacity="0.9" stroke-width="16" stroke-linecap="round" stroke-linejoin="round"/>
<path d="M284.165 72.499C284.99 67.8884 285 63.0337 285 58.2984C285 13.4654 226.16 45.7319 251.585 56.6298C256.66 58.8024 258.151 62.2166 264.117 61.2245" stroke="#000000" stroke-opacity="0.9" stroke-width="16" stroke-linecap="round" stroke-linejoin="round"/>
<path d="M175.137 223.866C192.309 223.643 210.136 219.627 227.348 221.775" stroke="#000000" stroke-opacity="0.9" stroke-width="16" stroke-linecap="round" stroke-linejoin="round"/>
<path d="M170.207 267.832C189.389 268.933 211.257 263.999 229.933 268.668" stroke="#000000" stroke-opacity="0.9" stroke-width="16" stroke-linecap="round" stroke-linejoin="round"/>
<path d="M199.387 234.787C199.387 231.226 199.387 230.371 199.387 226.828" stroke="#000000" stroke-opacity="0.9" stroke-width="16" stroke-linecap="round" stroke-linejoin="round"/>
<path d="M148.983 370.081C151.413 368.902 154.158 368.501 156.942 367.428" stroke="#000000" stroke-opacity="0.9" stroke-width="16" stroke-linecap="round" stroke-linejoin="round"/>
<path d="M239.179 371.047C242.999 370.177 246.397 371.177 250.053 371.177" stroke="#000000" stroke-opacity="0.9" stroke-width="16" stroke-linecap="round" stroke-linejoin="round"/>
</svg>