<?xml version="1.0" encoding="utf-8"?><!-- Uploaded to: SVG Repo, www.svgrepo.com, Generator: SVG Repo Mixer Tools -->
<svg width="800px" height="800px" viewBox="0 0 400 400" fill="none" xmlns="http://www.w3.org/2000/svg">
<path d="M188.592 75.3365C194.445 67.0989 214.357 62.4558 225.381 64.4671C242.424 67.5754 246.616 93.3748 245.93 105.345C243.114 154.46 160.333 117.41 189.041 81.5735" stroke="#000000" stroke-opacity="0.9" stroke-width="16" stroke-linecap="round" stroke-linejoin="round"/>
<path d="M331.801 44C94.0769 169.986 71.0319 183.496 32 206.298" stroke="#000000" stroke-opacity="0.9" stroke-width="16" stroke-linecap="round" stroke-linejoin="round"/>
<path d="M214 163C201.352 171.313 185.602 181.817 177 193" stroke="#000000" stroke-opacity="0.9" stroke-width="16" stroke-linecap="round" stroke-linejoin="round"/>
<path d="M259.621 132.734C274.647 124.559 329.251 126.411 360.262 130.288" stroke="#000000" stroke-opacity="0.9" stroke-width="16" stroke-linecap="round" stroke-linejoin="round"/>
<path d="M259.621 132.734C266.163 159.382 277.437 196.741 274.647 224.64" stroke="#000000" stroke-opacity="0.9" stroke-width="16" stroke-linecap="round" stroke-linejoin="round"/>
<path d="M215.938 162.787C227.328 183.642 231.615 213.076 234.458 235.822" stroke="#000000" stroke-opacity="0.9" stroke-width="16" stroke-linecap="round" stroke-linejoin="round"/>
<path d="M234.457 235.822C208.903 300.787 167.775 321.249 156.879 353.937" stroke="#000000" stroke-opacity="0.9" stroke-width="16" stroke-linecap="round" stroke-linejoin="round"/>
<path d="M274.645 224.64C312.502 258.029 314.435 300.25 307.144 347.647" stroke="#000000" stroke-opacity="0.9" stroke-width="16" stroke-linecap="round" stroke-linejoin="round"/>
<path d="M127.336 162.787C133.902 158.996 162.971 180.666 177.1 192.777" stroke="#000000" stroke-opacity="0.9" stroke-width="16" stroke-linecap="round" stroke-linejoin="round"/>
<path d="M308.191 349.395C309.465 351.814 310.303 354.055 310.638 356.733" stroke="#000000" stroke-opacity="0.9" stroke-width="16" stroke-linecap="round" stroke-linejoin="round"/>
<path d="M360.262 130.289C363.044 128.11 365.642 127.842 368.998 127.842" stroke="#000000" stroke-opacity="0.9" stroke-width="16" stroke-linecap="round" stroke-linejoin="round"/>
</svg>