<?xml version="1.0" encoding="utf-8"?><!-- Uploaded to: SVG Repo, www.svgrepo.com, Generator: SVG Repo Mixer Tools -->
<svg width="800px" height="800px" viewBox="0 0 400 400" fill="none" xmlns="http://www.w3.org/2000/svg">
<path d="M171.133 110.96C180.344 97.7911 197.519 98.3896 208.862 108.154C226.835 123.624 209.975 173.079 183.709 164.287C147.342 152.112 150.163 110.143 183.011 104.645" stroke="#000000" stroke-opacity="0.9" stroke-width="16" stroke-linecap="round" stroke-linejoin="round"/>
<path d="M133.39 30C222.879 81.3705 250.163 199.287 250.163 275.551" stroke="#000000" stroke-opacity="0.9" stroke-width="16" stroke-linecap="round" stroke-linejoin="round"/>
<path d="M249.719 276.464C270.494 277.34 311.769 280.836 328.576 290.921" stroke="#000000" stroke-opacity="0.9" stroke-width="16" stroke-linecap="round" stroke-linejoin="round"/>
<path d="M328.57 290.921C330.366 312.142 324.628 338.978 324.628 359.922" stroke="#000000" stroke-opacity="0.9" stroke-width="16" stroke-linecap="round" stroke-linejoin="round"/>
<path d="M326.606 359.265C328.358 359.265 330.11 359.265 331.863 359.265" stroke="#000000" stroke-opacity="0.9" stroke-width="16" stroke-linecap="round" stroke-linejoin="round"/>
<path d="M191.23 191.691C200.033 221.766 216.692 250.354 210.287 282.378" stroke="#000000" stroke-opacity="0.9" stroke-width="16" stroke-linecap="round" stroke-linejoin="round"/>
<path d="M210.287 282.378C181.942 300.239 148.053 327.863 117.63 342.179C103.282 348.931 76.7447 357.399 68.9995 363.208" stroke="#000000" stroke-opacity="0.9" stroke-width="16" stroke-linecap="round" stroke-linejoin="round"/>
<path d="M68.9995 362.908C69.2816 362.382 69.8895 366.109 70.0908 369.406" stroke="#000000" stroke-opacity="0.9" stroke-width="16" stroke-linecap="round" stroke-linejoin="round"/>
<path d="M156.307 50.7354C149.291 50.3456 142.977 49.9948 136.663 49.6441" stroke="#000000" stroke-opacity="0.9" stroke-width="16" stroke-linecap="round" stroke-linejoin="round"/>
<path d="M189.839 194.878C176.334 241.924 145.968 280.741 121.834 322.112" stroke="#000000" stroke-opacity="0.9" stroke-width="16" stroke-linecap="round" stroke-linejoin="round"/>
<path d="M121.838 322.112C119.004 323.246 111.714 334.174 110.026 336.424" stroke="#000000" stroke-opacity="0.9" stroke-width="16" stroke-linecap="round" stroke-linejoin="round"/>
</svg>