<?xml version="1.0" encoding="utf-8"?><!-- Uploaded to: SVG Repo, www.svgrepo.com, Generator: SVG Repo Mixer Tools -->
<svg width="800px" height="800px" viewBox="0 0 400 400" fill="none" xmlns="http://www.w3.org/2000/svg">
<path d="M116.182 77.5495C122.723 68.8266 135.816 68.7475 145.49 70.6494C172.856 76.0306 184.467 122.757 158.167 138.9C119.859 162.415 92.4294 117.625 112.437 83.8687" stroke="#000000" stroke-opacity="0.9" stroke-width="16" stroke-linecap="round" stroke-linejoin="round"/>
<path d="M108.373 159.178C49.8048 191.967 108.457 251.167 119.109 254.196" stroke="#000000" stroke-opacity="0.9" stroke-width="16" stroke-linecap="round" stroke-linejoin="round"/>
<path d="M86.8511 237.548C59.3334 328.327 51.921 338.581 52.0006 338.74C52.0261 338.791 62.8678 339.041 63.0833 338.969" stroke="#000000" stroke-opacity="0.9" stroke-width="16" stroke-linecap="round" stroke-linejoin="round"/>
<path d="M86.8501 237.548C130.443 317.715 135.556 334.862 139.718 336.944C140.952 337.561 151.05 329.265 152.056 328.259" stroke="#000000" stroke-opacity="0.9" stroke-width="16" stroke-linecap="round" stroke-linejoin="round"/>
<path d="M108.373 159.178C99.4919 196.945 93.9669 208.893 86.8501 237.549" stroke="#000000" stroke-opacity="0.9" stroke-width="16" stroke-linecap="round" stroke-linejoin="round"/>
<path d="M119.112 254.195C311.285 304.339 315.146 310.718 329.492 314.324C364.842 323.21 342.475 268.887 320.932 254.529" stroke="#000000" stroke-opacity="0.9" stroke-width="16" stroke-linecap="round" stroke-linejoin="round"/>
<path d="M198.079 254.529C224.339 331.944 223.537 335.703 226.671 336.956C227.161 337.152 229.073 335.889 229.34 335.622C279.905 290.446 313.989 265.228 340.323 233.626" stroke="#000000" stroke-opacity="0.9" stroke-width="16" stroke-linecap="round" stroke-linejoin="round"/>
<path d="M199.415 254.196C271.757 240.081 300.051 234.304 331.376 234.304" stroke="#000000" stroke-opacity="0.9" stroke-width="16" stroke-linecap="round" stroke-linejoin="round"/>
<path d="M285.454 293.034C289.486 287.386 296.343 284.259 303.135 283.693C338.52 280.744 345.229 319.43 319.482 333.734C294.487 347.62 269.409 313.402 285.143 292.425" stroke="#000000" stroke-opacity="0.9" stroke-width="16" stroke-linecap="round" stroke-linejoin="round"/>
<path d="M225.414 241.505C239.564 224.796 238.997 235.948 248.507 237.306C252.631 237.895 257.306 228.014 261.524 226.809C263.465 226.255 284.749 232.543 287.556 233.947" stroke="#000000" stroke-opacity="0.9" stroke-width="16" stroke-linecap="round" stroke-linejoin="round"/>
</svg>